<svg xmlns="http://www.w3.org/2000/svg" viewBox="0 0 735.82 292.84"><defs><style>.cls-1,.cls-6{font-size:261.63px;font-family:AvenirNextCondensed-BoldItalic, Avenir Next Condensed;font-weight:700;font-style:italic;letter-spacing:-0.02em;}.cls-1,.cls-11,.cls-8{fill:#be1622;}.cls-2{letter-spacing:-0.04em;}.cls-3{letter-spacing:-0.01em;}.cls-4{letter-spacing:-0.03em;}.cls-5{letter-spacing:0em;}.cls-10,.cls-6{fill:#fff;}.cls-10,.cls-11,.cls-6,.cls-8,.cls-9{stroke:#1d1d1b;stroke-miterlimit:10;}.cls-6{stroke-width:4px;}.cls-7{fill:#1d1d1b;}.cls-9{fill:none;stroke-width:3px;}.cls-10,.cls-11{stroke-width:0.5px;}</style></defs><title>Hats-Logo</title><g id="Layer_4" data-name="Layer 4"><text class="cls-1" transform="translate(0 225.43) scale(1.3 1)">H<tspan class="cls-2" x="152.56" y="0">A</tspan><tspan class="cls-3" x="282.89" y="0">T</tspan><tspan class="cls-4" x="388.25" y="0">´</tspan><tspan class="cls-5" x="450.39" y="0">s</tspan></text><text class="cls-6" transform="translate(8.91 225.43) scale(1.3 1)">H<tspan class="cls-2" x="152.56" y="0">A</tspan><tspan class="cls-3" x="282.89" y="0">T</tspan><tspan class="cls-4" x="388.25" y="0">´</tspan><tspan class="cls-5" x="450.39" y="0">s</tspan></text></g><g id="Layer_5" data-name="Layer 5"><rect class="cls-7" x="22.88" y="64.7" width="83.29" height="107.9" rx="15.87"/><ellipse class="cls-7" cx="64.53" cy="89.68" rx="46.99" ry="48.42"/><path class="cls-7" d="M144.77,205.9c2.75,7.06-7.53,17.17-13.16,21.6-10.47,8.22-22,8.38-25.64,8.38S90.58,235.7,80,227.23c-1.33-1.06-14.85-11.48-12.25-19.42.7-2.13,3.89-1.33,18-7.2C98,195.52,102.57,191,106,191c3.6-.09,8.24,4.48,20.54,9C141,205.23,144,204.05,144.77,205.9Z" transform="translate(-41.82 -100.51)"/><path class="cls-7" d="M77.23,239.48" transform="translate(-41.82 -100.51)"/><circle class="cls-7" cx="64.53" cy="86.88" r="3.06"/><path class="cls-8" d="M136.12,272.26c-7.81-.74-16.38-1.21-25.61-1.22s-18,.47-25.93,1.22a16.21,16.21,0,0,1-11.21-4.66,15.79,15.79,0,0,1-4.66-11.21V180.24a15.91,15.91,0,0,1,15.87-15.87h51.54A15.92,15.92,0,0,1,152,180.24v76.15A15.92,15.92,0,0,1,136.12,272.26Z" transform="translate(-41.82 -100.51)"/><ellipse class="cls-9" cx="68.54" cy="47.53" rx="16.7" ry="13.3"/><path class="cls-8" d="M154.74,188.81c.25,24.21-18.67,48.79-44.39,48.95s-45.1-24.31-45-48.68c.13-24.14,19.34-48.32,45-48.15C135.75,141.08,154.5,165.05,154.74,188.81Z" transform="translate(-41.82 -100.51)"/><path class="cls-10" d="M147.64,204.79c2.82,3.88-3.64,15.17-12,21.86C125.33,234.86,113.55,235,110,235c-4.08,0-16.09-.17-25.94-8.66-7.93-6.84-13.13-17.95-10.34-21.25.9-1.06,2-.63,6.47-1.74,3.22-.81,5.36-1.86,9.62-3.63,12.2-5.08,16.79-9.58,20.19-9.66,3.6-.09,8.24,4.48,20.54,9,3.72,1.36,7.51,2.5,11.32,3.58C146.25,203.89,147,203.93,147.64,204.79Z" transform="translate(-41.82 -100.51)"/><path class="cls-10" d="M81.24,238.64" transform="translate(-41.82 -100.51)"/><circle class="cls-11" cx="68.54" cy="86.04" r="3.06"/><path class="cls-8" d="M60.63,205.55" transform="translate(-41.82 -100.51)"/></g></svg>